<svg width="52" height="52" viewBox="0 0 52 52" fill="none" xmlns="http://www.w3.org/2000/svg">
<path d="M30.2626 34.6653C30.2822 34.5925 30.3253 34.5273 30.3863 34.4784C30.1577 34.4586 29.9229 34.4382 29.6932 34.3952C29.7173 34.516 29.7269 34.6387 29.722 34.7611C29.4958 37.5856 29.2526 40.4085 29.0263 43.233C28.8048 45.9857 28.5941 48.7394 28.3942 51.494C28.3807 51.6485 28.5218 51.8151 28.5856 51.9764C28.6706 51.8396 28.8113 51.7076 28.8316 51.5651C29.2957 46.96 29.5175 42.3309 29.9076 37.7179C29.9865 36.6878 30.128 35.6732 30.2626 34.6653Z" fill="#111111"/>
<path d="M24.0008 28.9752C23.983 28.7742 23.9741 28.5777 23.9711 28.3835C23.8758 28.4537 23.7604 28.4917 23.6419 28.4918C17.6708 29.1236 11.6974 29.7284 5.72654 30.3478C5.57017 30.389 5.42056 30.4525 5.28228 30.5361L5.32253 30.7544C5.63631 30.7517 5.9463 30.7749 6.26409 30.7447C12.0433 30.1678 17.8225 29.5773 23.6015 28.9733C23.7339 28.9536 23.8685 28.9542 24.0008 28.9752Z" fill="#111111"/>
<path d="M14.7977 31.7779C12.4526 32.355 10.0945 32.9239 7.74009 33.5105C7.53188 33.563 7.35146 33.7257 7.15648 33.8379C7.18985 33.9099 7.22322 33.982 7.25835 34.0527C12.8081 32.8613 18.3044 31.37 23.8239 30.0524C24.0083 29.9873 24.2092 29.9847 24.3953 30.045C24.3347 29.8866 24.2888 29.7231 24.2582 29.5564C24.2397 29.5423 24.222 29.5272 24.2052 29.5112C21.0584 30.1918 17.9381 31.034 14.7977 31.7779Z" fill="#111111"/>
<path d="M24.6123 30.5075L13.0977 34.5559C13.279 35.118 13.5835 34.8781 13.826 34.7947C17.3551 33.5663 20.8824 32.3356 24.4081 31.1025C24.631 31.0241 24.8349 30.9694 24.9679 31.0669C24.8379 30.888 24.7191 30.7011 24.6123 30.5075Z" fill="#111111"/>
<path d="M19.1257 42.6454C19.063 42.7316 19.1136 42.8999 19.1102 43.0306C19.241 43.0043 19.4052 43.0173 19.4929 42.9426C19.6564 42.7792 19.809 42.6052 19.9496 42.4217C22.4463 39.6268 24.9456 36.8354 27.4476 34.0475C27.5544 33.9453 27.6812 33.8659 27.82 33.8143C27.6192 33.7195 27.4232 33.6129 27.2301 33.4973C24.5801 36.5948 21.6756 39.4709 19.1257 42.6454Z" fill="#111111"/>
<path d="M12.3599 41.0637C12.1501 41.2019 12.0199 41.461 11.8525 41.6631C12.1024 41.6042 12.3947 41.6092 12.5957 41.4776C16.9277 38.6328 21.2385 35.7506 25.6184 32.9752C25.7917 32.8614 25.9806 32.7156 26.1988 32.713C26.0483 32.5745 25.9054 32.428 25.7707 32.2742C21.3231 35.2459 16.8191 38.1203 12.3599 41.0637Z" fill="#111111"/>
<path d="M25.1154 31.482C20.0575 33.9321 15.0552 36.4622 10.0211 38.9424C9.68395 39.1057 9.3597 39.2663 9.04176 39.448C8.96293 39.4943 8.93323 39.6228 8.88082 39.7136C8.98507 39.7746 9.09939 39.8166 9.21841 39.8377C9.33257 39.8173 9.44106 39.7729 9.53666 39.7075C14.6871 37.16 19.8295 34.5925 25.0016 32.0902C25.149 31.998 25.3189 31.9477 25.4929 31.9446C25.3434 31.7443 25.2092 31.5332 25.0914 31.3129C25.1039 31.3686 25.1119 31.4251 25.1154 31.482Z" fill="#111111"/>
<path d="M28.7103 34.3737C27.8732 37.3472 26.8283 40.2642 25.9498 43.2251C25.8644 43.5055 25.6355 43.7756 25.9286 44.1348C26.0909 43.8644 26.2373 43.6152 26.4079 43.3256C27.3673 40.4085 28.3044 37.4852 29.2479 34.563C29.2705 34.4891 29.3019 34.4182 29.3414 34.3518C29.1318 34.373 28.9209 34.3803 28.7103 34.3737Z" fill="#111111"/>
<path d="M14.1191 43.6456C13.6829 44.0257 13.2268 44.392 12.8047 44.7835C12.7251 44.8563 12.7212 45.0119 12.6837 45.1298C12.8181 45.1532 12.9558 45.1505 13.0891 45.1217C13.2412 45.0372 13.3802 44.9312 13.5017 44.8069C17.8606 41.0679 22.2186 37.3287 26.5756 33.5893C26.7052 33.4893 26.8484 33.4081 27.0009 33.3482C26.8266 33.2323 26.6583 33.1078 26.4973 32.9766C22.2655 36.4233 18.2619 40.1 14.1191 43.6456Z" fill="#111111"/>
<path d="M18.3095 49.166C18.2156 49.3227 18.2688 49.5643 18.2481 49.7657C18.3949 49.6564 18.5792 49.5774 18.681 49.4355C22.0905 44.4189 25.0538 39.0724 28.5243 34.1148C28.3197 34.0639 28.1179 34.0023 27.9198 33.9303C24.6415 38.9587 21.5441 44.1082 18.3095 49.166Z" fill="#111111"/>
<path d="M23.8742 27.5307L23.9212 27.208C23.8655 27.252 23.8017 27.2846 23.7333 27.304C23.5602 27.3211 23.3856 27.3156 23.2139 27.2878C21.2603 27.1783 19.3076 27.0627 17.3548 26.969C17.1835 26.9612 17.0049 27.1008 16.8302 27.1706C16.9947 27.257 17.1544 27.4084 17.3234 27.4205C19.5106 27.5827 21.7172 27.6556 23.8986 27.8576C23.8671 27.7516 23.8588 27.6402 23.8742 27.5307Z" fill="#111111"/>
<path d="M24.3755 25.2761C24.3134 25.2932 24.248 25.2939 24.1856 25.2782C22.8925 24.8728 21.6089 24.4344 20.3186 24.0201C19.343 23.7046 18.363 23.3979 17.3785 23.1109C17.2597 23.0764 17.0952 23.1946 16.9504 23.2423C17.0447 23.3372 17.1224 23.4813 17.2345 23.5179C19.5428 24.3226 21.8901 25.0096 24.1762 25.8688C24.2296 25.6671 24.2962 25.4691 24.3755 25.2761Z" fill="#111111"/>
<path d="M24.8072 24.2707C24.7299 24.2653 24.6541 24.2463 24.5834 24.2147C23.5188 23.7035 22.4659 23.166 21.4082 22.6402C20.7319 22.3028 20.0561 21.9623 19.3703 21.6469C19.2689 21.6009 19.1104 21.6778 18.979 21.6977C19.022 21.8205 19.0853 21.9352 19.1661 22.0373C19.2928 22.1261 19.4301 22.1985 19.5749 22.253C21.1779 23.08 22.7818 23.9008 24.3714 24.7446C24.4425 24.7883 24.5 24.8508 24.5378 24.925L24.5773 24.8589C24.6357 24.6562 24.7127 24.4593 24.8072 24.2707Z" fill="#111111"/>
<path d="M13.1429 16.0152C13.2632 16.1795 13.4037 16.328 13.5611 16.4573C14.9666 17.3492 16.3928 18.2066 17.7901 19.1114C20.1596 20.6498 22.5181 22.2053 24.8658 23.7779C24.9212 23.8173 24.9672 23.8682 25.0007 23.9272C25.1008 23.7642 25.209 23.6064 25.3251 23.4543C21.6207 21.0171 17.848 18.6606 14.1106 16.267C13.8386 16.116 13.5571 15.9827 13.2678 15.8678L13.1429 16.0152Z" fill="#111111"/>
<path d="M17.0151 7.10352C16.8968 6.95821 16.686 6.88848 16.5164 6.78411L16.4098 6.94511C16.4553 7.04417 16.5091 7.13926 16.5705 7.22936C19.9936 11.3704 23.025 15.823 26.2632 20.1042C26.6198 20.5883 26.9607 21.0836 27.2859 21.5902C27.4252 21.498 27.5702 21.4147 27.7202 21.341C25.2119 17.9221 22.7363 14.4829 20.2132 11.079C19.2011 9.71327 18.0939 8.41961 17.0151 7.10352Z" fill="#111111"/>
<path d="M24.9664 14.2344C24.9248 14.2048 24.8776 14.1841 24.8276 14.1736C24.7776 14.1631 24.726 14.163 24.6761 14.1734C24.6274 14.185 24.5722 14.3269 24.5819 14.4002C24.6078 14.5332 24.6547 14.6613 24.7208 14.7797C25.8474 16.9181 26.9622 19.0626 28.109 21.1915C28.2147 21.1575 28.3232 21.1325 28.4332 21.1169C28.4756 21.0949 28.5187 21.0684 28.5608 21.048C27.4145 18.8796 26.274 16.7079 25.1391 14.5329C25.1008 14.4235 25.0422 14.3223 24.9664 14.2344Z" fill="#111111"/>
<path d="M26.0115 12.3792C25.9387 12.2124 25.7278 12.0896 25.5826 11.9466C25.5786 12.1459 25.5114 12.3705 25.5787 12.5427C26.6702 15.3305 27.7847 18.1107 28.8911 20.8929C29.0585 20.8188 29.2402 20.7547 29.4191 20.6995C28.1907 17.9699 27.1859 15.1354 26.0115 12.3792Z" fill="#111111"/>
<path d="M27.9097 11.5683C27.8706 11.4282 27.6812 11.3304 27.5615 11.2052C27.5435 11.3931 27.4431 11.5878 27.5053 11.7734C28.2302 14.7218 29.094 17.642 29.7574 20.6034C29.9243 20.5665 30.0931 20.5389 30.263 20.5208C29.5097 17.5307 28.7163 14.5473 27.9097 11.5683Z" fill="#111111"/>
<path d="M29.1948 8.94312L31.1906 20.3964C31.3464 20.3992 31.491 20.4038 31.6396 20.415C31.0781 16.7413 30.391 13.0869 29.7148 9.43232C29.6766 9.22705 29.5283 9.0415 29.4311 8.84641L29.1948 8.94312Z" fill="#111111"/>
<path d="M22.4779 17.6568C23.7777 19.1659 25.1013 20.652 26.4046 22.1585C26.4233 22.1831 26.4394 22.2095 26.4527 22.2374C26.476 22.2173 26.5019 22.2008 26.5265 22.1825C26.6256 22.0938 26.7295 22.0043 26.8396 21.9157C26.7911 21.882 26.7504 21.8382 26.7204 21.7874C25.4216 20.3034 24.1279 18.817 22.8244 17.3433C22.7088 17.2124 22.494 17.1702 22.3245 17.0862C22.3685 17.2785 22.3589 17.527 22.4779 17.6568Z" fill="#111111"/>
<path d="M17.3871 15.8285C17.8818 16.2614 18.4218 16.6414 18.9121 17.0721C21.1776 19.0368 23.433 21.0131 25.6784 23.001C25.6787 23.0036 25.6783 23.0062 25.6773 23.0087C25.8024 22.8707 25.9305 22.7331 26.051 22.5945C26.029 22.5839 26.0083 22.571 25.9893 22.5558C24.9611 21.6766 23.9708 20.753 22.9325 19.8786C21.1748 18.3934 19.3994 16.9322 17.6206 15.4736C17.4878 15.3636 17.2677 15.3581 17.0873 15.3053C17.1959 15.4851 17.2482 15.7067 17.3871 15.8285Z" fill="#111111"/>
<path d="M23.7655 26.7727C23.8428 26.7972 23.9108 26.8447 23.9603 26.9089C23.9933 26.6825 24.0272 26.45 24.0852 26.2241C23.954 26.2398 23.8214 26.2409 23.6899 26.2275C20.6613 25.8069 17.6352 25.3694 14.6066 24.9488C11.655 24.5378 8.70176 24.1375 5.747 23.748C5.5813 23.7238 5.39482 23.8529 5.21796 23.9052C5.36091 23.9995 5.49583 24.1488 5.64815 24.1787C10.5813 24.9594 15.5525 25.5004 20.4978 26.2079C21.6026 26.3578 22.6874 26.5689 23.7655 26.7727Z" fill="#111111"/>
<path d="M18.0278 21.2966C17.8325 21.2956 17.6383 21.2674 17.4509 21.2126C16.3124 20.6814 15.1852 20.1268 14.0514 19.5853C12.5867 18.8846 11.1204 18.1948 9.65741 17.4819C9.48353 17.3957 9.36584 17.1927 9.22303 17.0438C9.42232 17.0525 9.65115 16.9983 9.81825 17.0773C12.5644 18.4034 15.3422 19.6732 18.061 21.0578L18.0278 21.2966Z" fill="#111111"/>
<path d="M13.5938 22.1161C13.4901 22.5587 13.1518 22.3642 12.9217 22.3088C11.7487 21.9928 10.5833 21.6466 9.41234 21.3168C8.3917 21.0307 7.36378 20.7624 6.34735 20.4582C6.18652 20.4113 6.06792 20.2254 5.92921 20.1021C6.09067 20.0693 6.27377 19.9742 6.4118 20.0161C8.77148 20.6721 11.1258 21.3429 13.485 22.0128C13.5186 22.0193 13.5406 22.0615 13.5938 22.1161Z" fill="#111111"/>
<path d="M15.503 10.2228C15.6605 10.3136 15.8093 10.4184 15.9478 10.5359C17.1708 11.7449 18.3902 12.9565 19.5949 14.1832C19.7028 14.2926 19.7038 14.5114 19.7566 14.6753C19.5982 14.6335 19.3886 14.642 19.2888 14.5416C18.0537 13.2871 16.8276 12.0245 15.6013 10.7635C15.5031 10.6397 15.4175 10.5063 15.3459 10.3655L15.503 10.2228Z" fill="#111111"/>
<path d="M20.1174 6.65555C20.2895 6.78682 20.5151 6.8837 20.6217 7.05542C21.5018 8.47692 22.3689 9.90953 23.2228 11.3532C23.3021 11.4866 23.2645 11.6905 23.2821 11.8602C23.1391 11.7659 22.9446 11.7032 22.8543 11.5698C21.8778 10.0031 20.9169 8.42614 19.9523 6.85332L20.1174 6.65555Z" fill="#111111"/>
<path d="M11.5036 10.9231C11.7005 10.9944 11.8899 11.0847 12.0691 11.1929C13.4171 12.1931 14.7584 13.2027 16.0931 14.2217C16.1892 14.2935 16.2151 14.4598 16.2712 14.5804C16.1398 14.5894 15.9666 14.6594 15.8876 14.5995C14.4146 13.5041 12.9494 12.3983 11.492 11.2823C11.4425 11.2454 11.4305 11.1561 11.4008 11.0909L11.5036 10.9231Z" fill="#111111"/>
<path d="M29.067 8.146C28.8096 6.51527 28.5428 4.88472 28.324 3.24712C28.3092 3.13405 28.4301 3.00326 28.4872 2.88036C28.5843 2.97729 28.7505 3.06241 28.7676 3.17111C29.0133 4.70955 29.2427 6.2529 29.4557 7.80115C29.4734 7.92713 29.3375 8.07448 29.2733 8.21353L29.067 8.146Z" fill="#111111"/>
<path d="M14.6351 26.9023C14.6618 26.9562 14.7431 27.043 14.7263 27.1046C14.6568 27.2804 14.4171 27.3017 14.2441 27.2734C12.8016 27.1727 11.3571 27.0749 9.91573 26.9556C9.76096 26.9425 9.60539 26.8058 9.45011 26.7316C9.61581 26.6699 9.78999 26.5499 9.96713 26.5601C11.5331 26.6631 13.0673 26.7475 14.6351 26.9023Z" fill="#111111"/>
<path d="M22.2065 3.91516C22.7245 4.96215 23.151 6.03487 23.6215 7.1062C23.676 7.23753 23.5905 7.42658 23.5699 7.58916C23.4541 7.49108 23.282 7.41447 23.2312 7.28992C22.7955 6.32364 22.3737 5.35106 21.966 4.37218C21.937 4.23651 21.9484 4.09541 21.9985 3.96611C22.003 3.93552 22.1271 3.93328 22.2065 3.91516Z" fill="#111111"/>
<path d="M25.9247 6.95583C25.6165 5.84566 25.3081 4.73702 25.0282 3.62628C25.003 3.53045 25.098 3.40527 25.138 3.29238C25.231 3.36371 25.3845 3.41731 25.4104 3.50855C25.7165 4.54031 26.0072 5.57661 26.2827 6.61745C26.3112 6.72312 26.1944 6.86857 26.146 6.99587L25.9247 6.95583Z" fill="#111111"/>
<path d="M7.37484 36.6735C8.30085 36.3835 9.22578 36.0901 10.1535 35.8097C10.2207 35.7898 10.315 35.8629 10.3969 35.892C10.361 35.9883 10.352 36.1354 10.2844 36.1693C10.0584 36.2774 9.82457 36.3687 9.58496 36.4423C9.02362 36.6277 8.46314 36.8179 7.8931 36.977C7.74279 37.0192 7.56118 36.9537 7.39436 36.9372L7.37484 36.6735Z" fill="#111111"/>
<path d="M14.9389 46.8579C15.4624 46.3093 15.9465 45.7831 16.4461 45.2794C16.514 45.2112 16.6694 45.2307 16.7837 45.2099C16.7872 45.315 16.8353 45.4579 16.7836 45.5223C16.2981 46.0904 15.8027 46.6509 15.2863 47.1943C15.2305 47.2549 15.0532 47.2026 14.9326 47.2022L14.9389 46.8579Z" fill="#111111"/>
<path d="M24.6098 46.8559C24.9023 46.1565 25.0807 45.5049 25.3671 44.856C25.4062 44.7681 25.5583 44.7307 25.6576 44.6704C25.6984 44.7674 25.7945 44.8837 25.7692 44.9622C25.5191 45.6663 25.257 46.3667 24.9691 47.0587C24.9386 47.1352 24.7544 47.1497 24.6416 47.1924L24.6098 46.8559Z" fill="#111111"/>
<path d="M13.674 8.93362C14.2759 8.74946 15.1064 9.47956 15.1084 10.1968L13.674 8.93362Z" fill="#111111"/>
<path d="M26.2533 7.60982C26.4286 7.75093 26.5933 7.8249 26.6597 7.95015C26.9912 8.57792 27.0452 9.07783 26.8446 9.34697L26.2533 7.60982Z" fill="#111111"/>
<path d="M25.013 11.3265C24.855 11.002 24.6804 10.6845 24.549 10.3498C24.5089 10.2487 24.5854 10.1005 24.6041 9.97202C24.7075 10.0261 24.8604 10.0515 24.9076 10.1365C25.0605 10.4014 25.1856 10.6813 25.2809 10.9718C25.3138 11.0797 25.2103 11.2302 25.1692 11.3617L25.013 11.3265Z" fill="#111111"/>
<path d="M19.0845 5.28032C19.4901 5.19567 19.8526 5.6327 20.0176 6.40337C19.5893 6.40662 19.269 6.02416 19.0845 5.28032Z" fill="#111111"/>
<path d="M14.2976 22.6621C14.6 22.3719 16.0323 22.4461 15.7601 22.9266C15.6786 22.9916 15.5754 23.0234 15.4713 23.0157C15.1071 22.9237 14.7518 22.8032 14.2976 22.6621Z" fill="#111111"/>
<path d="M24.2191 8.03202C24.2995 8.44828 24.3817 8.79765 24.4205 9.15475C24.4261 9.21336 24.2437 9.29302 24.1413 9.3609C23.9949 9.00062 23.8466 8.64164 23.7133 8.27703C23.7105 8.26412 23.8841 8.191 24.2191 8.03202Z" fill="#111111"/>
<path d="M24.2364 13.7517L23.4941 12.4815C23.7552 12.4852 23.9807 12.443 24.0058 12.4967C24.1836 12.8678 24.321 13.258 24.4656 13.6414L24.2364 13.7517Z" fill="#111111"/>
<path d="M12.0658 35.0855C12.0987 35.2069 12.121 35.3308 12.1324 35.456C11.8415 35.5688 11.5449 35.6664 11.2437 35.7484C11.2034 35.6663 11.1713 35.5806 11.1478 35.4923C11.43 35.3522 11.7201 35.232 12.0658 35.0855Z" fill="#111111"/>
<path d="M46.6824 20.4524C46.3656 20.4524 46.085 20.3846 45.8405 20.2489C45.6007 20.1132 45.4151 19.9232 45.2838 19.679C45.1525 19.4348 45.0869 19.1498 45.0869 18.8242C45.0869 18.494 45.1525 18.2068 45.2838 17.9626C45.4196 17.7183 45.6097 17.5306 45.8541 17.3995C46.0985 17.2638 46.386 17.1959 46.7164 17.1959C47.0468 17.1959 47.3274 17.2592 47.5583 17.3859C47.7891 17.5125 47.9657 17.6957 48.0879 17.9354C48.2146 18.1706 48.278 18.4556 48.278 18.7903C48.278 18.8264 48.2757 18.8649 48.2712 18.9056C48.2712 18.9463 48.2689 18.9757 48.2644 18.9938H45.5214V18.4917H47.6398L47.4157 18.8038C47.4293 18.7767 47.4429 18.7405 47.4564 18.6953C47.4745 18.6455 47.4836 18.6048 47.4836 18.5732C47.4836 18.4058 47.4497 18.2611 47.3818 18.139C47.3184 18.0168 47.2279 17.9219 47.1102 17.854C46.997 17.7862 46.8635 17.7522 46.7096 17.7522C46.524 17.7522 46.3656 17.7929 46.2343 17.8744C46.1031 17.9558 46.0035 18.0734 45.9356 18.2271C45.8677 18.3809 45.8315 18.5709 45.827 18.797C45.827 19.0232 45.8609 19.2154 45.9288 19.3737C45.9967 19.5275 46.0963 19.6451 46.2275 19.7265C46.3633 19.8079 46.5263 19.8486 46.7164 19.8486C46.9155 19.8486 47.0898 19.8079 47.2392 19.7265C47.3885 19.6451 47.513 19.5207 47.6126 19.3534L48.244 19.6112C48.0811 19.8916 47.8706 20.1019 47.6126 20.2421C47.3546 20.3823 47.0445 20.4524 46.6824 20.4524Z" fill="#111111"/>
<path d="M44.3884 18.4035V20.3846H43.6551V18.485C43.6551 18.2498 43.6121 18.0756 43.5261 17.9626C43.4446 17.845 43.3134 17.7862 43.1323 17.7862C43.0101 17.7862 42.9015 17.8133 42.8064 17.8676C42.7159 17.9219 42.6435 18.001 42.5892 18.105C42.5394 18.2091 42.5145 18.3357 42.5145 18.485V20.3846H41.7812V18.485C41.7812 18.2498 41.7382 18.0756 41.6522 17.9626C41.5707 17.845 41.4395 17.7862 41.2584 17.7862C41.1317 17.7862 41.0208 17.8133 40.9257 17.8676C40.8352 17.9219 40.7651 18.001 40.7153 18.105C40.6655 18.2091 40.6406 18.3357 40.6406 18.485V20.3846H39.9209V17.2638H40.6406V17.7183C40.7311 17.5464 40.8488 17.4175 40.9936 17.3316C41.143 17.2412 41.3173 17.1959 41.5164 17.1959C41.7473 17.1959 41.9374 17.2434 42.0867 17.3384C42.2406 17.4334 42.3515 17.5713 42.4194 17.7522C42.5281 17.5713 42.6638 17.4334 42.8268 17.3384C42.9943 17.2434 43.1844 17.1959 43.3971 17.1959C43.6189 17.1959 43.8022 17.2434 43.9471 17.3384C44.0964 17.4289 44.2073 17.5645 44.2797 17.7455C44.3522 17.9264 44.3884 18.1457 44.3884 18.4035Z" fill="#111111"/>
<path d="M35.8574 18.8242C35.8574 18.503 35.9298 18.2204 36.0747 17.9761C36.2241 17.7319 36.4255 17.5419 36.6789 17.4062C36.9324 17.266 37.2198 17.1959 37.5412 17.1959C37.8626 17.1959 38.1477 17.266 38.3967 17.4062C38.6502 17.5419 38.8516 17.7319 39.0009 17.9761C39.1503 18.2204 39.225 18.503 39.225 18.8242C39.225 19.1408 39.1503 19.4235 39.0009 19.6722C38.8516 19.9165 38.6502 20.1087 38.3967 20.2489C38.1477 20.3846 37.8626 20.4524 37.5412 20.4524C37.2198 20.4524 36.9324 20.3846 36.6789 20.2489C36.4255 20.1087 36.2241 19.9165 36.0747 19.6722C35.9298 19.4235 35.8574 19.1408 35.8574 18.8242ZM36.6111 18.8242C36.6111 19.0187 36.6518 19.1905 36.7333 19.3398C36.8147 19.4845 36.9256 19.5999 37.0659 19.6858C37.2063 19.7672 37.3647 19.8079 37.5412 19.8079C37.7132 19.8079 37.8694 19.7672 38.0097 19.6858C38.1545 19.5999 38.2677 19.4845 38.3492 19.3398C38.4306 19.1905 38.4714 19.0187 38.4714 18.8242C38.4714 18.6297 38.4306 18.4578 38.3492 18.3086C38.2677 18.1593 38.1545 18.044 38.0097 17.9626C37.8694 17.8811 37.7132 17.8404 37.5412 17.8404C37.3647 17.8404 37.2063 17.8811 37.0659 17.9626C36.9256 18.044 36.8147 18.1593 36.7333 18.3086C36.6518 18.4578 36.6111 18.6297 36.6111 18.8242Z" fill="#111111"/>
<path d="M33.0569 10.9839L33.1483 20.3848H32.415V10.7033V10.3826L32.4552 9.90158V9.66105L32.5354 8.21789L32.5755 7.49631V7.13552L32.7079 6.81482L32.8162 7.05535L32.8563 7.49631L32.8965 8.21789L33.0168 9.70114L33.0569 10.0218V10.1822V10.543V10.9839ZM34.4247 18.4852C34.4247 18.2545 34.3772 18.0804 34.2821 17.9628C34.1916 17.8452 34.0445 17.7864 33.8408 17.7864C33.705 17.7864 33.5851 17.8158 33.481 17.8746C33.3769 17.9334 33.2954 18.0148 33.2366 18.1188C33.1777 18.2228 33.1483 18.345 33.1483 18.4852H32.9718C32.9718 18.2364 33.017 18.0148 33.1076 17.8203C33.1981 17.6258 33.3248 17.4698 33.4878 17.3522C33.6552 17.2346 33.8567 17.1758 34.092 17.1758C34.3229 17.1758 34.5175 17.221 34.6759 17.3115C34.8389 17.4019 34.9611 17.5376 35.0426 17.7185C35.124 17.8949 35.1648 18.1166 35.1648 18.3834V20.3848H34.4247V18.4852Z" fill="#111111"/>
<path d="M49.0051 23.4911L52.0005 29.9953H51.0837L50.114 27.8752H47.2963L46.3026 29.9953H45.7842L48.8275 23.4911H49.0051ZM47.4931 27.4627H49.9172L48.6979 24.8773L47.4931 27.4627Z" fill="#111111"/>
<path d="M40.5518 23.6351H42.6639C43.0287 23.6351 43.3487 23.6767 43.6239 23.7598C43.9023 23.8398 44.1327 23.9533 44.3152 24.1004C44.5008 24.2475 44.64 24.4234 44.7328 24.628C44.8256 24.8295 44.872 25.0501 44.872 25.29C44.872 25.4914 44.8352 25.6801 44.7616 25.856C44.6912 26.0287 44.5888 26.1854 44.4544 26.3261C44.32 26.4636 44.1583 26.5819 43.9695 26.681C43.7807 26.7801 43.5695 26.8569 43.3359 26.9112L45.6544 29.9955H44.5648L42.3519 27.0072H41.4302V29.9955H40.5518V23.6351ZM41.4302 26.6858H42.1454C42.3983 26.6858 42.6319 26.6538 42.8463 26.5899C43.0639 26.5259 43.2511 26.4364 43.4079 26.3213C43.5647 26.2029 43.6863 26.0606 43.7727 25.8944C43.8623 25.7281 43.9071 25.541 43.9071 25.3331C43.9071 25.1413 43.8719 24.9654 43.8015 24.8055C43.7311 24.6456 43.6319 24.5097 43.5039 24.3978C43.3759 24.2827 43.2239 24.1931 43.0479 24.1292C42.8719 24.0652 42.6783 24.0333 42.4671 24.0333H41.4302V26.6858Z" fill="#111111"/>
<path d="M33.4277 23.6351H34.3062V27.765C34.3062 28.0369 34.3542 28.2927 34.4502 28.5325C34.5494 28.7691 34.6886 28.977 34.8678 29.1561C35.0502 29.3351 35.2694 29.4775 35.5254 29.583C35.7815 29.6853 36.0679 29.7365 36.3847 29.7365C36.5703 29.7365 36.7479 29.7093 36.9175 29.6549C37.0871 29.5974 37.2439 29.5206 37.3879 29.4247C37.5351 29.3288 37.668 29.2168 37.7864 29.0889C37.9048 28.961 38.0056 28.8235 38.0888 28.6764C38.1752 28.5293 38.2408 28.3774 38.2856 28.2207C38.3336 28.064 38.3576 27.9105 38.3576 27.7603V23.6351H38.828V27.6931C38.828 28.0097 38.772 28.3151 38.66 28.6093C38.5512 28.9035 38.3832 29.1641 38.156 29.3911C37.9288 29.6182 37.6392 29.8004 37.2871 29.9379C36.9351 30.0754 36.5191 30.1442 36.0391 30.1442C35.6166 30.1442 35.2422 30.0818 34.9158 29.9571C34.5926 29.8292 34.3206 29.6565 34.0998 29.4391C33.879 29.2216 33.7109 28.9674 33.5957 28.6764C33.4837 28.3822 33.4277 28.0688 33.4277 27.7363V23.6351Z" fill="#111111"/>
<path d="M29.4583 23.4911L32.4536 29.9953H31.5368L30.5671 27.8752H27.7494L26.7557 29.9953H26.2373L29.2807 23.4911H29.4583ZM27.9462 27.4627H30.3703L29.1511 24.8773L27.9462 27.4627Z" fill="#111111"/>
</svg>
