<svg width="166" height="166" viewBox="0 0 166 166" fill="none" xmlns="http://www.w3.org/2000/svg">
<path d="M96.606 110.662C96.6683 110.43 96.8061 110.222 97.0009 110.066C96.2711 110.002 95.5215 109.937 94.7883 109.8C94.8651 110.186 94.8959 110.577 94.8801 110.968C94.1579 119.985 93.3815 128.996 92.6593 138.013C91.9522 146.8 91.2795 155.591 90.6414 164.385C90.5983 164.878 91.0487 165.41 91.2522 165.925C91.5239 165.488 91.973 165.066 92.0376 164.612C93.5191 149.911 94.2272 135.133 95.4725 120.407C95.7246 117.119 96.1762 113.88 96.606 110.662Z" fill="white"/>
<path d="M76.6146 92.4977C76.5581 91.8562 76.5295 91.2287 76.5199 90.609C76.2157 90.8331 75.8474 90.9542 75.4691 90.9546C56.4075 92.9714 37.3385 94.9024 18.2777 96.8794C17.7785 97.0112 17.3009 97.2137 16.8595 97.4807L16.988 98.1776C17.9897 98.1688 18.9792 98.2431 19.9937 98.1465C38.4429 96.3048 56.8916 94.4198 75.34 92.4916C75.7626 92.4287 76.1925 92.4307 76.6146 92.4977Z" fill="white"/>
<path d="M47.2373 101.445C39.7508 103.287 32.2231 105.103 24.7071 106.976C24.0425 107.143 23.4665 107.663 22.8441 108.021C22.9506 108.251 23.0571 108.481 23.1693 108.707C40.8857 104.903 58.4315 100.143 76.0516 95.9364C76.6404 95.7288 77.2815 95.7205 77.8758 95.9128C77.6823 95.4073 77.5357 94.8852 77.4379 94.3531C77.3789 94.3082 77.3225 94.26 77.2689 94.2088C67.2232 96.3814 57.2624 99.0699 47.2373 101.445Z" fill="white"/>
<path d="M78.5669 97.3894L41.8086 110.313C42.3873 112.108 43.3593 111.342 44.1334 111.075C55.3994 107.154 66.6599 103.225 77.9147 99.2891C78.6265 99.0387 79.2772 98.8641 79.702 99.1753C79.2869 98.604 78.9078 98.0076 78.5669 97.3894Z" fill="white"/>
<path d="M61.052 136.137C60.8518 136.412 61.0136 136.95 61.0028 137.367C61.4201 137.283 61.9443 137.324 62.2242 137.086C62.7463 136.564 63.2333 136.009 63.6821 135.423C71.6524 126.501 79.631 117.59 87.618 108.69C87.9592 108.364 88.3638 108.11 88.807 107.946C88.1659 107.643 87.5402 107.303 86.9238 106.934C78.4642 116.822 69.1923 126.003 61.052 136.137Z" fill="white"/>
<path d="M39.4535 131.088C38.784 131.529 38.3682 132.356 37.834 133.001C38.6317 132.813 39.5647 132.829 40.2062 132.409C54.0354 123.328 67.7969 114.127 81.7788 105.267C82.332 104.904 82.9351 104.438 83.6316 104.43C83.1512 103.988 82.6951 103.52 82.2652 103.029C68.0669 112.515 53.6887 121.692 39.4535 131.088Z" fill="white"/>
<path d="M80.1743 100.5C64.0279 108.322 48.0593 116.399 31.9889 124.316C30.9125 124.838 29.8774 125.35 28.8624 125.93C28.6107 126.078 28.5159 126.488 28.3486 126.778C28.6814 126.973 29.0464 127.107 29.4263 127.174C29.7908 127.109 30.1371 126.968 30.4423 126.759C46.8842 118.626 63.3003 110.43 79.8112 102.442C80.2817 102.148 80.824 101.987 81.3795 101.977C80.9024 101.338 80.474 100.664 80.0979 99.9605C80.1376 100.138 80.1631 100.319 80.1743 100.5Z" fill="white"/>
<path d="M91.6487 109.732C88.9763 119.224 85.6407 128.536 82.8364 137.988C82.5637 138.883 81.833 139.745 82.7687 140.892C83.2868 140.029 83.754 139.233 84.2987 138.309C87.3613 128.996 90.353 119.664 93.3648 110.336C93.437 110.1 93.5373 109.874 93.6633 109.662C92.9941 109.729 92.3211 109.753 91.6487 109.732Z" fill="white"/>
<path d="M45.0709 139.33C43.6785 140.543 42.2225 141.713 40.8748 142.963C40.6208 143.195 40.6084 143.692 40.4885 144.068C40.9176 144.143 41.3571 144.134 41.7828 144.042C42.2683 143.773 42.7119 143.434 43.0998 143.037C57.015 131.101 70.927 119.164 84.8357 107.227C85.2494 106.908 85.7066 106.649 86.1935 106.458C85.6372 106.087 85.0999 105.69 84.5858 105.271C71.0767 116.274 58.2959 128.011 45.0709 139.33Z" fill="white"/>
<path d="M58.448 156.953C58.148 157.453 58.3178 158.225 58.252 158.868C58.7206 158.519 59.3087 158.266 59.6337 157.814C70.518 141.799 79.9778 124.731 91.0568 108.905C90.4036 108.743 89.7594 108.546 89.1269 108.316C78.6616 124.368 68.7737 140.807 58.448 156.953Z" fill="white"/>
<path d="M76.2105 87.8865L76.3608 86.8563C76.183 86.9968 75.9791 87.101 75.7608 87.1629C75.2083 87.2173 74.6509 87.1999 74.1027 87.1109C67.8662 86.7614 61.6325 86.3924 55.3986 86.0932C54.852 86.0684 54.2819 86.514 53.7241 86.737C54.2491 87.0129 54.7589 87.496 55.2985 87.5346C62.2808 88.0525 69.3247 88.2852 76.2885 88.9301C76.188 88.5917 76.1614 88.2359 76.2105 87.8865Z" fill="white"/>
<path d="M77.8124 80.689C77.6143 80.7434 77.4055 80.7456 77.2062 80.6955C73.0782 79.4014 68.9805 78.002 64.8616 76.6793C61.7472 75.6723 58.6186 74.6933 55.4759 73.7769C55.0968 73.6669 54.5716 74.0442 54.1093 74.1963C54.4102 74.4994 54.6583 74.9594 55.0164 75.0763C62.3849 77.6451 69.8782 79.838 77.1764 82.581C77.3468 81.9372 77.5593 81.3052 77.8124 80.689Z" fill="white"/>
<path d="M79.1888 77.4793C78.942 77.4621 78.7002 77.4016 78.4746 77.3005C75.076 75.6688 71.7148 73.9528 68.3381 72.2744C66.1792 71.1972 64.0218 70.1102 61.8327 69.1033C61.509 68.9565 61.003 69.2019 60.5836 69.2655C60.7208 69.6575 60.9227 70.0239 61.1808 70.3498C61.5851 70.633 62.0236 70.8644 62.4859 71.0384C67.6032 73.6783 72.7233 76.2987 77.7978 78.9921C78.0245 79.1319 78.2083 79.3311 78.329 79.5681L78.4548 79.3571C78.6415 78.7101 78.8872 78.0816 79.1888 77.4793Z" fill="white"/>
<path d="M41.9531 51.1254C42.337 51.6497 42.7854 52.1238 43.288 52.5364C47.7748 55.3837 52.3277 58.1209 56.7885 61.0093C64.3524 65.9202 71.8816 70.8859 79.3762 75.9064C79.553 76.032 79.7 76.1946 79.8069 76.3829C80.1262 75.8625 80.4718 75.3586 80.8424 74.8732C69.0166 67.0929 56.9733 59.5702 45.0422 51.9292C44.1738 51.4472 43.2752 51.0215 42.3519 50.6549L41.9531 51.1254Z" fill="white"/>
<path d="M54.3142 22.6768C53.9366 22.2129 53.2638 21.9903 52.7222 21.6571L52.3821 22.1711C52.5273 22.4873 52.6989 22.7909 52.8951 23.0785C63.8227 36.2979 73.4998 50.512 83.8369 64.179C84.9755 65.7243 86.0638 67.3056 87.1018 68.9227C87.5465 68.6283 88.0096 68.3626 88.4883 68.1273C80.4809 57.213 72.578 46.2341 64.5235 35.3677C61.2927 31.0079 57.7582 26.8781 54.3142 22.6768Z" fill="white"/>
<path d="M79.6975 45.4406C79.5648 45.3462 79.4139 45.2802 79.2544 45.2467C79.0949 45.2131 78.9302 45.2128 78.7706 45.2458C78.6151 45.283 78.439 45.736 78.4699 45.9699C78.5526 46.3945 78.7023 46.8034 78.9135 47.1814C82.51 54.0079 86.0686 60.8538 89.7295 67.6498C90.0672 67.5413 90.4134 67.4616 90.7647 67.4116C90.8999 67.3415 91.0373 67.2568 91.1719 67.1916C87.5127 60.2695 83.8716 53.3368 80.2489 46.3935C80.1264 46.0443 79.9394 45.7211 79.6975 45.4406Z" fill="white"/>
<path d="M83.035 39.5183C82.8025 38.9858 82.1294 38.5936 81.6657 38.1371C81.653 38.7735 81.4384 39.4903 81.6533 40.0402C85.1376 48.9396 88.6955 57.8149 92.2274 66.6964C92.762 66.4601 93.3421 66.2554 93.913 66.0792C89.9915 57.3654 86.7841 48.3167 83.035 39.5183Z" fill="white"/>
<path d="M89.0947 36.9295C88.9698 36.4825 88.3651 36.17 87.9832 35.7704C87.9258 36.3703 87.6051 36.9918 87.8038 37.5842C90.1179 46.9965 92.8752 56.3187 94.9932 65.7723C95.5259 65.6546 96.0648 65.5666 96.6073 65.5086C94.2025 55.9635 91.6697 46.4396 89.0947 36.9295Z" fill="white"/>
<path d="M93.1957 28.549L99.5667 65.1115C100.064 65.1204 100.526 65.135 101 65.1709C99.2076 53.4431 97.0141 41.7773 94.8557 30.1107C94.7335 29.4554 94.2601 28.8631 93.9498 28.2403L93.1957 28.549Z" fill="white"/>
<path d="M71.7531 56.3656C75.9026 61.1833 80.1278 65.9273 84.2885 70.7366C84.3481 70.8151 84.3995 70.8994 84.4419 70.9883C84.5162 70.9243 84.599 70.8716 84.6775 70.8132C84.9939 70.5301 85.3257 70.2444 85.677 69.9614C85.5222 69.8538 85.3924 69.7141 85.2966 69.552C81.1504 64.8146 77.0203 60.0695 72.8594 55.3649C72.4901 54.9471 71.8045 54.8124 71.2634 54.5441C71.404 55.158 71.3733 55.9513 71.7531 56.3656Z" fill="white"/>
<path d="M55.5016 50.5295C57.0808 51.9112 58.8046 53.1246 60.3699 54.4994C67.6019 60.7715 74.8019 67.0804 81.9699 73.4263C81.9708 73.4346 81.9696 73.443 81.9663 73.4507C82.3657 73.0102 82.7748 72.5711 83.1595 72.1285C83.0894 72.0949 83.0232 72.0535 82.9624 72.005C79.6802 69.1985 76.5187 66.25 73.2042 63.4587C67.593 58.7174 61.9256 54.0527 56.247 49.3964C55.823 49.0454 55.1203 49.0279 54.5446 48.8593C54.8911 49.4333 55.058 50.1408 55.5016 50.5295Z" fill="white"/>
<path d="M75.865 85.4668C76.1119 85.5449 76.329 85.6966 76.4869 85.9014C76.5923 85.1787 76.7005 84.4365 76.8856 83.7155C76.4667 83.7654 76.0434 83.769 75.6236 83.7262C65.9554 82.3835 56.2951 80.987 46.627 79.6442C37.2044 78.3322 27.7769 77.0544 18.3444 75.8108C17.8154 75.7338 17.2202 76.1457 16.6556 76.3129C17.1119 76.6137 17.5426 77.0903 18.0289 77.186C33.7769 79.6782 49.6465 81.4053 65.4336 83.6638C68.9603 84.1424 72.4234 84.8161 75.865 85.4668Z" fill="white"/>
<path d="M57.5471 67.9853C56.9237 67.9821 56.3038 67.8918 55.7055 67.7171C52.0712 66.0212 48.4728 64.2507 44.8533 62.522C40.1775 60.2854 35.4966 58.0831 30.8264 55.8075C30.2713 55.5322 29.8956 54.8841 29.4397 54.4088C30.0759 54.4366 30.8064 54.2637 31.3398 54.5159C40.1063 58.7492 48.9741 62.8028 57.6533 67.2228L57.5471 67.9853Z" fill="white"/>
<path d="M43.3925 70.6013C43.0614 72.0141 41.9815 71.3932 41.247 71.2164C37.5025 70.2075 33.7821 69.1024 30.0441 68.0495C26.7859 67.1364 23.5044 66.2796 20.2597 65.3086C19.7463 65.1591 19.3677 64.5654 18.9248 64.1718C19.4403 64.0673 20.0248 63.7635 20.4654 63.8975C27.9982 65.9915 35.5141 68.1329 43.0454 70.2715C43.1525 70.2921 43.2228 70.427 43.3925 70.6013Z" fill="white"/>
<path d="M49.4887 32.6342C49.9912 32.9241 50.4664 33.2586 50.9086 33.6338C54.8126 37.4932 58.7054 41.361 62.5512 45.2768C62.8955 45.6261 62.8986 46.3247 63.0674 46.8479C62.5617 46.7144 61.8925 46.7417 61.5741 46.4211C57.6312 42.4163 53.7171 38.3859 49.8022 34.3603C49.4888 33.9649 49.2157 33.5392 48.9871 33.0897L49.4887 32.6342Z" fill="white"/>
<path d="M64.2192 21.2464C64.7684 21.6654 65.4886 21.9747 65.8288 22.5229C68.6385 27.0608 71.4064 31.6341 74.1324 36.2429C74.3854 36.6686 74.2656 37.3194 74.3216 37.8611C73.8653 37.5603 73.2442 37.3602 72.9562 36.9343C69.8389 31.9328 66.7714 26.8986 63.692 21.8777L64.2192 21.2464Z" fill="white"/>
<path d="M36.7198 34.8699C37.3483 35.0974 37.953 35.3858 38.525 35.7311C42.828 38.924 47.11 42.147 51.3708 45.4002C51.6776 45.6293 51.7603 46.16 51.9392 46.5451C51.5198 46.5738 50.967 46.7974 50.7148 46.6061C46.0126 43.1092 41.3352 39.5793 36.6827 36.0164C36.5248 35.8987 36.4863 35.6138 36.3916 35.4056L36.7198 34.8699Z" fill="white"/>
<path d="M92.7889 26.0044C91.9674 20.7986 91.1157 15.5934 90.4173 10.3656C90.3699 10.0047 90.7559 9.58718 90.9382 9.19485C91.2482 9.50427 91.7788 9.77599 91.8333 10.123C92.6178 15.0342 93.35 19.961 94.0299 24.9035C94.0863 25.3057 93.6525 25.7761 93.4478 26.22L92.7889 26.0044Z" fill="white"/>
<path d="M46.7183 85.8804C46.8033 86.0523 47.063 86.3295 47.0093 86.5261C46.7875 87.0872 46.0223 87.1553 45.4702 87.0649C40.8652 86.7435 36.2539 86.4312 31.6525 86.0505C31.1585 86.0085 30.6619 85.5722 30.1662 85.3355C30.6951 85.1382 31.2511 84.7554 31.8166 84.7879C36.8157 85.1168 41.7134 85.3861 46.7183 85.8804Z" fill="white"/>
<path d="M70.8871 12.4984C72.5406 15.8407 73.902 19.2651 75.4041 22.6851C75.5781 23.1044 75.305 23.7079 75.2394 24.2269C74.8699 23.9138 74.3203 23.6692 74.1582 23.2717C72.7672 20.187 71.4209 17.0822 70.1191 13.9573C70.0268 13.5242 70.0629 13.0738 70.2231 12.661C70.2374 12.5634 70.6335 12.5562 70.8871 12.4984Z" fill="white"/>
<path d="M82.7563 22.205C81.7724 18.661 80.7878 15.1219 79.8943 11.576C79.8139 11.2701 80.1172 10.8705 80.2448 10.5101C80.5417 10.7378 81.032 10.909 81.1146 11.2002C82.0916 14.4939 83.0198 17.8021 83.8992 21.1248C83.99 21.4621 83.6172 21.9264 83.4629 22.3328L82.7563 22.205Z" fill="white"/>
<path d="M23.541 117.073C26.4971 116.147 29.4498 115.211 32.4114 114.316C32.6258 114.252 32.9269 114.486 33.1885 114.578C33.0736 114.886 33.0452 115.355 32.8293 115.464C32.1076 115.809 31.3613 116.1 30.5964 116.335C28.8044 116.927 27.0152 117.534 25.1954 118.042C24.7156 118.177 24.1359 117.968 23.6033 117.915L23.541 117.073Z" fill="white"/>
<path d="M47.6866 149.585C49.3576 147.834 50.903 146.154 52.498 144.546C52.7148 144.328 53.2109 144.39 53.5758 144.324C53.5869 144.66 53.7404 145.116 53.5754 145.321C52.0255 147.135 50.444 148.924 48.7955 150.659C48.6173 150.852 48.0514 150.685 47.6664 150.684L47.6866 149.585Z" fill="white"/>
<path d="M78.5585 149.578C79.4924 147.346 80.062 145.266 80.9763 143.194C81.1009 142.913 81.5865 142.794 81.9034 142.602C82.0339 142.911 82.3405 143.283 82.2599 143.533C81.4613 145.781 80.6246 148.017 79.7057 150.226C79.6084 150.47 79.0201 150.516 78.6602 150.653L78.5585 149.578Z" fill="white"/>
<path d="M43.6485 28.5187C45.57 27.9308 48.2213 30.2615 48.2276 32.5512L43.6485 28.5187Z" fill="white"/>
<path d="M83.8053 24.2927C84.3648 24.7432 84.8906 24.9793 85.1024 25.3791C86.1608 27.3832 86.3332 28.9791 85.6928 29.8382L83.8053 24.2927Z" fill="white"/>
<path d="M79.8475 36.1575C79.3433 35.1217 78.7858 34.1081 78.3664 33.0398C78.2384 32.717 78.4824 32.2439 78.5422 31.8337C78.8722 32.0064 79.3606 32.0875 79.5111 32.3587C79.9993 33.2045 80.3986 34.0981 80.7029 35.0255C80.8077 35.3699 80.4776 35.8504 80.3463 36.2701L79.8475 36.1575Z" fill="white"/>
<path d="M60.9204 16.8564C62.2153 16.5862 63.3724 17.9813 63.8991 20.4415C62.532 20.4519 61.5096 19.231 60.9204 16.8564Z" fill="white"/>
<path d="M45.639 72.3442C46.6044 71.4177 51.1767 71.6545 50.3078 73.1885C50.0476 73.3959 49.7183 73.4976 49.3859 73.4732C48.2233 73.1792 47.0889 72.7947 45.639 72.3442Z" fill="white"/>
<path d="M77.313 25.6405C77.5694 26.9693 77.832 28.0846 77.9559 29.2246C77.9736 29.4117 77.3913 29.666 77.0646 29.8827C76.597 28.7326 76.1239 27.5866 75.6984 26.4227C75.6894 26.3815 76.2436 26.148 77.313 25.6405Z" fill="white"/>
<path d="M77.3684 43.8998L74.9984 39.8449C75.8321 39.8565 76.552 39.722 76.6321 39.8932C77.1996 41.0778 77.6382 42.3235 78.1 43.5476L77.3684 43.8998Z" fill="white"/>
<path d="M38.5144 112.003C38.6193 112.391 38.6904 112.787 38.7271 113.186C37.7984 113.546 36.8514 113.858 35.89 114.12C35.7613 113.858 35.6588 113.584 35.584 113.302C36.4845 112.855 37.4108 112.471 38.5144 112.003Z" fill="white"/>
<path d="M149.023 65.2904C148.012 65.2904 147.116 65.0738 146.336 64.6407C145.57 64.2075 144.977 63.6011 144.558 62.8214C144.139 62.0417 143.93 61.1321 143.93 60.0925C143.93 59.0385 144.139 58.1217 144.558 57.342C144.992 56.5623 145.599 55.9631 146.379 55.5444C147.159 55.1112 148.077 54.8947 149.131 54.8947C150.186 54.8947 151.082 55.0968 151.819 55.5011C152.556 55.9054 153.119 56.4901 153.51 57.2554C153.914 58.0062 154.117 58.9158 154.117 59.9842C154.117 60.0998 154.109 60.2225 154.095 60.3524C154.095 60.4824 154.088 60.5762 154.073 60.634H145.317V59.0313H152.079L151.364 60.0276C151.407 59.9409 151.451 59.8254 151.494 59.681C151.552 59.5222 151.581 59.3923 151.581 59.2912C151.581 58.757 151.472 58.2949 151.256 57.9051C151.053 57.5153 150.764 57.212 150.389 56.9955C150.027 56.7789 149.601 56.6706 149.11 56.6706C148.517 56.6706 148.012 56.8005 147.593 57.0604C147.174 57.3203 146.856 57.6957 146.639 58.1866C146.422 58.6776 146.307 59.284 146.292 60.0059C146.292 60.7278 146.401 61.3415 146.617 61.8468C146.834 62.3377 147.152 62.7131 147.571 62.973C148.004 63.2329 148.525 63.3629 149.131 63.3629C149.767 63.3629 150.324 63.2329 150.8 62.973C151.277 62.7131 151.675 62.3161 151.992 61.7818L154.008 62.6048C153.488 63.5 152.816 64.1714 151.992 64.619C151.169 65.0666 150.179 65.2904 149.023 65.2904Z" fill="white"/>
<path d="M141.701 58.7497V65.0738H139.36V59.0096C139.36 58.2588 139.223 57.703 138.948 57.342C138.688 56.9666 138.269 56.7789 137.691 56.7789C137.301 56.7789 136.954 56.8655 136.651 57.0388C136.362 57.212 136.131 57.4647 135.957 57.7968C135.798 58.1289 135.719 58.5332 135.719 59.0096V65.0738H133.378V59.0096C133.378 58.2588 133.241 57.703 132.966 57.342C132.706 56.9666 132.287 56.7789 131.709 56.7789C131.305 56.7789 130.951 56.8655 130.647 57.0388C130.358 57.212 130.134 57.4647 129.975 57.7968C129.816 58.1289 129.737 58.5332 129.737 59.0096V65.0738H127.439V55.1112H129.737V56.5623C130.026 56.0136 130.402 55.6021 130.864 55.3278C131.341 55.039 131.897 54.8947 132.533 54.8947C133.27 54.8947 133.877 55.0463 134.353 55.3495C134.845 55.6527 135.199 56.0931 135.416 56.6706C135.762 56.0931 136.196 55.6527 136.716 55.3495C137.251 55.0463 137.857 54.8947 138.537 54.8947C139.245 54.8947 139.83 55.0463 140.292 55.3495C140.769 55.6382 141.123 56.0714 141.354 56.6489C141.585 57.2265 141.701 57.9267 141.701 58.7497Z" fill="white"/>
<path d="M114.468 60.0925C114.468 59.0674 114.699 58.165 115.161 57.3853C115.638 56.6056 116.281 55.9992 117.09 55.566C117.9 55.1185 118.817 54.8947 119.843 54.8947C120.869 54.8947 121.779 55.1185 122.574 55.566C123.383 55.9992 124.026 56.6056 124.503 57.3853C124.98 58.165 125.218 59.0674 125.218 60.0925C125.218 61.1032 124.98 62.0056 124.503 62.7998C124.026 63.5794 123.383 64.1931 122.574 64.6407C121.779 65.0738 120.869 65.2904 119.843 65.2904C118.817 65.2904 117.9 65.0738 117.09 64.6407C116.281 64.1931 115.638 63.5794 115.161 62.7998C114.699 62.0056 114.468 61.1032 114.468 60.0925ZM116.874 60.0925C116.874 60.7134 117.004 61.2621 117.264 61.7385C117.524 62.2006 117.878 62.5687 118.326 62.8431C118.774 63.103 119.279 63.2329 119.843 63.2329C120.392 63.2329 120.891 63.103 121.338 62.8431C121.801 62.5687 122.162 62.2006 122.422 61.7385C122.682 61.2621 122.812 60.7134 122.812 60.0925C122.812 59.4717 122.682 58.923 122.422 58.4465C122.162 57.9701 121.801 57.6019 121.338 57.342C120.891 57.0821 120.392 56.9521 119.843 56.9521C119.279 56.9521 118.774 57.0821 118.326 57.342C117.878 57.6019 117.524 57.9701 117.264 58.4465C117.004 58.923 116.874 59.4717 116.874 60.0925Z" fill="white"/>
<path d="M105.528 35.0641L105.819 65.0745H103.479V34.1683V33.1446L103.607 31.6089V30.841L103.863 26.234L103.991 23.9305V22.7788L104.413 21.755L104.759 22.5228L104.887 23.9305L105.015 26.234L105.4 30.969L105.528 31.9928V32.5047V33.6564V35.0641ZM109.894 59.0104C109.894 58.274 109.742 57.7181 109.439 57.3427C109.15 56.9673 108.68 56.7796 108.03 56.7796C107.597 56.7796 107.214 56.8734 106.881 57.0611C106.549 57.2488 106.289 57.5087 106.101 57.8408C105.913 58.1729 105.819 58.5628 105.819 59.0104H105.256C105.256 58.2162 105.4 57.5087 105.689 56.8879C105.978 56.267 106.383 55.7689 106.903 55.3935C107.438 55.0181 108.081 54.8304 108.832 54.8304C109.569 54.8304 110.19 54.9748 110.696 55.2635C111.216 55.5523 111.606 55.9855 111.866 56.563C112.126 57.1261 112.257 57.8336 112.257 58.6855V65.0745H109.894V59.0104Z" fill="white"/>
<path d="M156.438 74.9906L166 95.7542H163.073L159.977 88.9861H150.982L147.81 95.7542H146.155L155.871 74.9906H156.438ZM151.611 87.6693H159.349L155.457 79.4159L151.611 87.6693Z" fill="white"/>
<path d="M129.452 75.4504H136.195C137.359 75.4504 138.381 75.5831 139.259 75.8486C140.148 76.1038 140.884 76.4662 141.466 76.9357C142.059 77.4053 142.503 77.9668 142.799 78.6201C143.096 79.2632 143.244 79.9676 143.244 80.7332C143.244 81.3763 143.126 81.9786 142.891 82.5401C142.666 83.0913 142.34 83.5915 141.91 84.0407C141.481 84.4796 140.965 84.8573 140.363 85.1738C139.76 85.4903 139.086 85.7353 138.34 85.9088L145.741 95.7547H142.263L135.199 86.215H132.256V95.7547H129.452V75.4504ZM132.256 85.1891H134.54C135.347 85.1891 136.092 85.087 136.777 84.8829C137.472 84.6787 138.069 84.3929 138.57 84.0254C139.07 83.6477 139.459 83.1934 139.734 82.6626C140.021 82.1317 140.164 81.5346 140.164 80.871C140.164 80.2585 140.051 79.6971 139.826 79.1867C139.602 78.6762 139.285 78.2424 138.876 77.8851C138.468 77.5176 137.982 77.2318 137.421 77.0276C136.859 76.8234 136.241 76.7214 135.566 76.7214H132.256V85.1891Z" fill="white"/>
<path d="M106.71 75.4504H109.514V88.6344C109.514 89.5021 109.667 90.3188 109.974 91.0844C110.291 91.8398 110.735 92.5033 111.307 93.075C111.889 93.6467 112.589 94.1009 113.406 94.4378C114.224 94.7645 115.138 94.9278 116.149 94.9278C116.742 94.9278 117.309 94.841 117.85 94.6675C118.392 94.4837 118.892 94.2387 119.352 93.9325C119.822 93.6262 120.246 93.2689 120.624 92.8606C121.002 92.4523 121.324 92.0133 121.589 91.5438C121.865 91.0742 122.075 90.5893 122.218 90.0891C122.371 89.5889 122.448 89.0989 122.448 88.6191V75.4504H123.949V88.4047C123.949 89.4153 123.771 90.3902 123.413 91.3294C123.066 92.2685 122.529 93.1005 121.804 93.8253C121.079 94.5501 120.154 95.132 119.03 95.5709C117.907 96.0099 116.579 96.2293 115.046 96.2293C113.698 96.2293 112.502 96.0303 111.46 95.6322C110.429 95.2238 109.56 94.6726 108.855 93.9784C108.15 93.2843 107.614 92.4727 107.246 91.5438C106.889 90.6046 106.71 89.6042 106.71 88.5425V75.4504Z" fill="white"/>
<path d="M94.0382 74.9906L103.6 95.7542H100.673L97.578 88.9861H88.5829L85.4108 95.7542H83.7559L93.4712 74.9906H94.0382ZM89.2112 87.6693H96.9497L93.0575 79.4159L89.2112 87.6693Z" fill="white"/>
</svg>
